<svg xmlns="http://www.w3.org/2000/svg" xmlns:xlink="http://www.w3.org/1999/xlink" width="267.409" height="166.72" viewBox="0 0 267.409 166.72">
  <defs>
    <clipPath id="clip-path">
      <rect id="Rectangle_8437" data-name="Rectangle 8437" width="267.409" height="166.72" fill="#fff"/>
    </clipPath>
  </defs>
  <g id="Group_9271" data-name="Group 9271" transform="translate(0 0)">
    <g id="Group_3611" data-name="Group 3611" transform="translate(0 0)" clip-path="url(#clip-path)">
      <path id="Path_9030" data-name="Path 9030" d="M49.749,75.077h-6.81a7.4,7.4,0,0,1-7.4-7.4V13.194h8.011v51.64c0,9.16,6.2,10.244,6.2,10.244" transform="translate(71.119 26.408)" fill="#fff"/>
      <path id="Path_9031" data-name="Path 9031" d="M21.7,59.271h0v-38.2H13.693V51.26A8.011,8.011,0,0,0,21.7,59.271" transform="translate(27.406 42.169)" fill="#fff"/>
      <path id="Path_9032" data-name="Path 9032" d="M41.522,35.753c-5.775,0-10.55,2-13.864,5.469V13.194H19.648V75.035h3.62a4.391,4.391,0,0,0,4.391-4.391c3.314,3.467,8.089,5.469,13.864,5.469,10.013,0,18.948-8.089,18.948-20.182,0-12.015-8.935-20.179-18.948-20.179M40.214,69.027a12.678,12.678,0,0,1-12.555-13.1A12.727,12.727,0,0,1,40.214,42.839c7.008,0,12.477,5.084,12.477,13.092,0,8.089-5.469,13.1-12.477,13.1" transform="translate(39.324 26.408)" fill="#fff"/>
      <path id="Path_9033" data-name="Path 9033" d="M109.2,59.99h7.933V35.651c0-9.01-6.546-14.941-14.479-14.941a16.833,16.833,0,0,0-14.251,7.008C85.941,23.249,81.166,20.71,75.7,20.71s-9.473,2-12.246,5.391a4.312,4.312,0,0,0-4.313-4.313h-3.7v38.2h8.011V41.042c0-8.548,4-12.939,10.166-12.939,4.931,0,8.626,3.545,8.626,9.166V59.99h8.011V41.042c0-8.548,4.082-12.939,10.322-12.939,4.928,0,8.626,3.545,8.626,9.166Z" transform="translate(110.961 41.451)" fill="#fff"/>
      <path id="Path_9034" data-name="Path 9034" d="M60.279,60.35c9.241,0,15.328-6.624,15.328-16.253V21.07H67.6V42.482c0,6.237-3.62,10.475-9.166,10.475s-9.166-4.238-9.166-10.475V21.07H41.256V44.1c0,9.629,6.084,16.253,15.325,16.253Z" transform="translate(82.571 42.171)" fill="#fff"/>
      <path id="Path_9035" data-name="Path 9035" d="M24.831,20.516a5.881,5.881,0,1,1-5.883-5.883,5.883,5.883,0,0,1,5.883,5.883" transform="translate(26.155 29.288)" fill="#fff"/>
      <path id="Path_9036" data-name="Path 9036" d="M54.077,20.516a5.881,5.881,0,1,1-5.883-5.883,5.883,5.883,0,0,1,5.883,5.883" transform="translate(84.688 29.288)" fill="#fff"/>
      <path id="Path_9037" data-name="Path 9037" d="M59.486,20.516A5.881,5.881,0,1,1,53.6,14.633a5.883,5.883,0,0,1,5.883,5.883" transform="translate(95.514 29.288)" fill="#fff"/>
    </g>
  </g>
</svg>
